<?xml version="1.0" standalone="no"?>
<!DOCTYPE svg PUBLIC "-//W3C//DTD SVG 20010904//EN"
 "http://www.w3.org/TR/2001/REC-SVG-20010904/DTD/svg10.dtd">
<svg version="1.0" xmlns="http://www.w3.org/2000/svg"
 width="410.000000pt" height="410.000000pt" viewBox="0 0 410.000000 410.000000"
 preserveAspectRatio="xMidYMid meet">
<metadata>
Created by potrace 1.14, written by Peter Selinger 2001-2017
</metadata>
<g transform="translate(0.000000,410.000000) scale(0.100000,-0.100000)"
fill="#000000" stroke="none">
<path d="M2194 4044 c-20 -7 -40 -18 -45 -25 -4 -7 -6 -66 -4 -131 4 -108 2
-124 -20 -176 -13 -31 -88 -223 -166 -427 -77 -203 -156 -410 -175 -460 -19
-49 -39 -99 -44 -110 -5 -11 -61 -157 -125 -325 -63 -168 -120 -314 -125 -325
-5 -11 -45 -117 -90 -235 -45 -118 -85 -224 -90 -235 -33 -72 -380 -992 -385
-1018 -28 -159 16 -301 125 -408 68 -66 175 -122 233 -121 9 1 17 -2 17 -6 0
-12 145 0 186 14 69 25 132 60 173 99 26 25 52 41 56 37 5 -4 5 -1 1 6 -5 8 0
22 11 35 18 21 63 115 78 165 3 12 11 19 17 16 7 -4 8 -2 4 4 -9 15 4 63 15
56 5 -3 6 2 3 10 -3 9 -1 16 6 16 6 0 9 4 6 9 -9 14 5 42 17 34 6 -3 7 -1 3 6
-10 16 13 83 26 75 7 -4 8 -2 4 4 -10 16 45 162 58 155 5 -3 6 -1 2 6 -8 13
24 101 37 101 5 0 6 4 3 9 -4 5 3 31 15 58 11 26 22 56 24 66 2 10 15 42 29
72 13 29 27 67 31 84 3 17 11 33 16 36 5 4 9 15 9 26 0 10 4 19 8 19 4 0 9 8
9 18 4 35 90 242 98 235 4 -5 5 -3 2 4 -7 10 36 144 53 168 4 6 13 28 20 50 7
22 20 56 28 75 9 19 17 40 18 45 2 10 58 155 73 190 14 32 91 234 91 239 0 2
10 26 22 53 11 26 22 53 23 58 2 6 22 60 45 120 23 61 63 165 88 232 26 67 51
119 56 116 5 -4 6 -1 2 6 -8 13 24 101 37 101 5 0 6 4 2 9 -3 5 6 35 19 66 14
30 25 58 25 60 0 7 26 77 76 205 21 52 41 106 46 119 8 20 11 22 27 10 15 -13
16 -12 4 2 -11 14 -8 22 21 53 19 20 33 36 30 36 -2 0 13 15 34 32 46 40 57
56 57 88 2 56 -158 181 -333 263 -80 36 -261 101 -313 111 -13 2 -45 9 -73 16
-73 17 -188 19 -231 4z"/>
</g>
</svg>
