<svg version="1" xmlns="http://www.w3.org/2000/svg" width="546.667" height="546.667" viewBox="0 0 410.000000 410.000000"><path d="M219.4 5.6c-2 .7-4 1.8-4.5 2.5-.4.7-.6 6.6-.4 13.1.4 10.8.2 12.4-2 17.6-1.3 3.1-8.8 22.3-16.6 42.7-7.7 20.3-15.6 41-17.5 46-1.9 4.9-3.9 9.9-4.4 11-.5 1.1-6.1 15.7-12.5 32.5-6.3 16.8-12 31.4-12.5 32.5-.5 1.1-4.5 11.7-9 23.5s-8.5 22.4-9 23.5c-3.3 7.2-38 99.2-38.5 101.8-2.8 15.9 1.6 30.1 12.5 40.8 6.8 6.6 17.5 12.2 23.3 12.1.9-.1 1.7.2 1.7.6 0 1.2 14.5 0 18.6-1.4 6.9-2.5 13.2-6 17.3-9.9 2.6-2.5 5.2-4.1 5.6-3.7.5.4.5.1.1-.6-.5-.8 0-2.2 1.1-3.5 1.8-2.1 6.3-11.5 7.8-16.5.3-1.2 1.1-1.9 1.7-1.6.7.4.8.2.4-.4-.9-1.5.4-6.3 1.5-5.6.5.3.6-.2.3-1-.3-.9-.1-1.6.6-1.6.6 0 .9-.4.6-.9-.9-1.4.5-4.2 1.7-3.4.6.3.7.1.3-.6-1-1.6 1.3-8.3 2.6-7.5.7.4.8.2.4-.4-1-1.6 4.5-16.2 5.8-15.5.5.3.6.1.2-.6-.8-1.3 2.4-10.1 3.7-10.1.5 0 .6-.4.3-.9-.4-.5.3-3.1 1.5-5.8 1.1-2.6 2.2-5.6 2.4-6.6.2-1 1.5-4.2 2.9-7.2 1.3-2.9 2.7-6.7 3.1-8.4.3-1.7 1.1-3.3 1.6-3.6.5-.4.9-1.5.9-2.6 0-1 .4-1.9.8-1.9s.9-.8.9-1.8c.4-3.5 9-24.2 9.8-23.5.4.5.5.3.2-.4-.7-1 3.6-14.4 5.3-16.8.4-.6 1.3-2.8 2-5s2-5.6 2.8-7.5c.9-1.9 1.7-4 1.8-4.5.2-1 5.8-15.5 7.3-19 1.4-3.2 9.1-23.4 9.1-23.9 0-.2 1-2.6 2.2-5.3 1.1-2.6 2.2-5.3 2.3-5.8.2-.6 2.2-6 4.5-12 2.3-6.1 6.3-16.5 8.8-23.2 2.6-6.7 5.1-11.9 5.6-11.6.5.4.6.1.2-.6-.8-1.3 2.4-10.1 3.7-10.1.5 0 .6-.4.2-.9-.3-.5.6-3.5 1.9-6.6 1.4-3 2.5-5.8 2.5-6 0-.7 2.6-7.7 7.6-20.5 2.1-5.2 4.1-10.6 4.6-11.9.8-2 1.1-2.2 2.7-1 1.5 1.3 1.6 1.2.4-.2-1.1-1.4-.8-2.2 2.1-5.3 1.9-2 3.3-3.6 3-3.6-.2 0 1.3-1.5 3.4-3.2 4.6-4 5.7-5.6 5.7-8.8.2-5.6-15.8-18.1-33.3-26.3-8-3.6-26.1-10.1-31.3-11.1-1.3-.2-4.5-.9-7.3-1.6-7.3-1.7-18.8-1.9-23.1-.4z"/></svg>